<svg id="Layer_1" data-name="Layer 1" xmlns="http://www.w3.org/2000/svg" viewBox="0 0 100 100"><defs><style>.cls-1{fill:#fff;}.cls-2{fill:#040103;}</style></defs><title>clear</title><circle class="cls-1" cx="51" cy="50" r="45"/><path class="cls-2" d="M50.78,47.32H37.63l-10,13.78,23,22.55.94-.93,22-21.62-10-13.78ZM61.34,50l-1.85,8.22L52.94,50Zm-10.84.79,7.13,8.93H43.53ZM48.07,50l-6.38,8.19h0L39.85,50ZM37.78,51.72h0l1.8,8H31.94Zm2.53,10.43L46.63,76,32.54,62.15ZM50.6,78.87,42.94,62.15h15.3Zm4-2.9,6.32-13.82h7.76Zm7-16.22,1.81-8h0l5.83,8Z"/><path class="cls-2" d="M81,42c-3.27,0-4.4-.82-5-1.45s-1.45-1.77-1.45-5c0-.13,0-.48-.4-.48a.41.41,0,0,0-.41.48c0,3.27-.82,4.4-1.46,5S70.44,42,67.17,42c-.13,0-.48,0-.48.41s.35.4.48.4c3.27,0,4.4.82,5,1.46s1.46,1.76,1.46,5a.41.41,0,0,0,.41.48c.39,0,.4-.35.4-.48,0-3.27.82-4.4,1.45-5s1.77-1.46,5-1.46c.13,0,.48,0,.48-.41S81.09,42,81,42Z"/><path class="cls-2" d="M32.31,29.69c4.5,0,6,1.13,6.92,2s2,2.43,2,6.92c0,.17,0,.66.55.66a.57.57,0,0,0,.56-.66c0-4.49,1.13-6,2-6.92s2.43-2,6.92-2c.18,0,.66,0,.66-.55a.57.57,0,0,0-.66-.56c-4.49,0-6.05-1.13-6.92-2s-2-2.43-2-6.92a.57.57,0,0,0-.56-.66c-.53,0-.55.49-.55.66,0,4.49-1.13,6.05-2,6.92s-2.42,2-6.92,2a.57.57,0,0,0-.66.56C31.65,29.67,32.14,29.69,32.31,29.69Z"/><path class="cls-2" d="M32.13,43.75c0-.36-.33-.37-.44-.37-3,0-4.05-.76-4.63-1.34s-1.35-1.63-1.35-4.63c0-.12,0-.44-.37-.44s-.37.32-.37.44c0,3-.75,4-1.34,4.63S22,43.38,19,43.38c-.12,0-.44,0-.44.37s.32.37.44.37c3,0,4.05.76,4.63,1.34S25,47.09,25,50.1c0,.11,0,.44.37.44s.37-.33.37-.44c0-3,.76-4.05,1.35-4.64s1.62-1.34,4.63-1.34C31.8,44.12,32.13,44.11,32.13,43.75Z"/></svg>