<svg id="Layer_1" data-name="Layer 1" xmlns="http://www.w3.org/2000/svg" viewBox="0 0 100 100"><defs><style>.cls-1{fill:#fff;}.cls-2{fill:#04051e;}</style></defs><title>clear</title><circle class="cls-1" cx="51.25" cy="50" r="45"/><path class="cls-2" d="M52,45.93H38.66L28.46,60l23.39,23,1-.94L75.25,60l-10.2-14Zm10.75,2.75-1.88,8.37-6.67-8.37Zm-11,.8L59,58.58H44.66Zm-2.47-.8L42.79,57h0l-1.87-8.34ZM38.8,50.41h0l1.84,8.17H32.86ZM41.38,61l6.44,14.06L33.48,61ZM51.85,78,44.07,61H59.64Zm4-3L62.32,61h7.9Zm7.17-16.5,1.84-8.17h0l5.94,8.17Z"/><path class="cls-2" d="M82.76,40.48c-3.33,0-4.48-.84-5.13-1.48s-1.48-1.8-1.48-5.13c0-.13,0-.49-.41-.49s-.41.36-.41.49c0,3.33-.83,4.48-1.48,5.13s-1.8,1.48-5.13,1.48c-.13,0-.48,0-.48.41a.41.41,0,0,0,.48.41c3.33,0,4.48.84,5.13,1.48s1.48,1.8,1.48,5.13c0,.13,0,.49.41.49s.41-.36.41-.49c0-3.33.84-4.48,1.48-5.13s1.8-1.48,5.13-1.48c.13,0,.49,0,.49-.41S82.89,40.48,82.76,40.48Z"/><path class="cls-2" d="M33.24,28c4.58,0,6.16,1.15,7,2s2,2.47,2,7.05a.57.57,0,0,0,.56.66c.55,0,.56-.49.56-.66,0-4.58,1.16-6.16,2-7s2.47-2,7-2c.18,0,.67,0,.67-.56s-.49-.57-.67-.57c-4.57,0-6.16-1.15-7-2s-2-2.47-2-7c0-.17,0-.66-.56-.66a.57.57,0,0,0-.56.66c0,4.58-1.15,6.16-2,7s-2.47,2-7,2c-.18,0-.67,0-.67.57S33.06,28,33.24,28Z"/><path class="cls-2" d="M33.05,42.29a.38.38,0,0,0-.44-.38c-3.06,0-4.12-.77-4.72-1.36s-1.36-1.66-1.36-4.72a.39.39,0,1,0-.76,0c0,3.06-.77,4.12-1.36,4.72s-1.66,1.36-4.72,1.36a.39.39,0,1,0,0,.76c3.06,0,4.12.77,4.72,1.36s1.36,1.66,1.36,4.72a.38.38,0,1,0,.76,0c0-3.06.77-4.12,1.36-4.72s1.66-1.36,4.72-1.36A.38.38,0,0,0,33.05,42.29Z"/></svg>