<svg id="Layer_1" data-name="Layer 1" xmlns="http://www.w3.org/2000/svg" viewBox="0 0 100 100"><defs><style>.cls-1{fill:#fff;}.cls-2{fill:#04051e;}</style></defs><title>Artboard 1</title><circle class="cls-1" cx="51" cy="50" r="45"/><polygon class="cls-2" points="67.87 73.6 27.35 73.6 27.35 43.25 42.95 43.25 42.95 27.65 67.87 27.65 67.87 31.65 71.93 27.76 71.93 23.6 42.95 23.6 27.35 39.2 23.3 43.25 23.3 77.65 71.93 77.65 71.93 53.79 67.87 58.02 67.87 73.6"/><path class="cls-2" d="M83.9,34.28l-6.12-6.12a1.38,1.38,0,0,0-2,0L50,53a1.4,1.4,0,0,0-.35.57L46.55,63.79a1.38,1.38,0,0,0,1.72,1.72l10.59-3.22,25-26.06A1.38,1.38,0,0,0,83.9,34.28ZM52.37,61.74l-2-2.19L51.75,55l3.48,1.86,1.86,3.48ZM80,33.3,58,55.44,56.62,54,78.76,32,80,33.3Z"/></svg>