<svg id="Layer_1" data-name="Layer 1" xmlns="http://www.w3.org/2000/svg" viewBox="0 0 100 100"><defs><style>.cls-1{fill:#fff;}.cls-2{fill:#4c4b4c;}</style></defs><title>concept</title><circle class="cls-1" cx="51.25" cy="50" r="45"/><polygon class="cls-2" points="68.13 72.48 28.47 72.48 28.47 42.78 43.74 42.78 43.74 27.52 68.13 27.52 68.13 31.43 72.09 27.62 72.09 23.55 43.74 23.55 28.47 38.82 24.51 42.78 24.51 76.45 72.09 76.45 72.09 53.1 68.13 57.23 68.13 72.48"/><path class="cls-2" d="M83.81,34l-6-6a1.35,1.35,0,0,0-1.91,0L50.65,52.28a1.41,1.41,0,0,0-.34.56l-3.05,10a1.35,1.35,0,0,0,1.68,1.69l10.37-3.16,24.5-25.5A1.35,1.35,0,0,0,83.81,34ZM53,60.88l-2-2.15,1.36-4.48,3.4,1.83,1.83,3.39ZM80,33,58.49,54.71l-1.37-1.37L78.78,31.81,80,33Z"/></svg>