<svg id="Layer_1" data-name="Layer 1" xmlns="http://www.w3.org/2000/svg" viewBox="0 0 100 100"><defs><style>.cls-1{fill:#fff;}.cls-2{fill:#4c4b4c;}</style></defs><title>Artboard 1</title><circle class="cls-1" cx="50" cy="50" r="45"/><path class="cls-2" d="M50,12.82A23.79,23.79,0,0,0,36.9,56.47a9,9,0,0,1,1.61,1.29,3.11,3.11,0,0,1,.85,1.62,15.7,15.7,0,0,1,.23,3.32V65H60.42V62.7a24.76,24.76,0,0,1,.08-2.49,6.32,6.32,0,0,1,.22-1.16,3.06,3.06,0,0,1,.65-1.16,8.48,8.48,0,0,1,1.73-1.42A23.79,23.79,0,0,0,50,12.82ZM60.6,52.69a13.42,13.42,0,0,0-2.41,2,7.75,7.75,0,0,0-2,3.72,14,14,0,0,0-.28,2.06H44c0-.23,0-.47,0-.69a10,10,0,0,0-.4-2,7.63,7.63,0,0,0-1.55-2.79,12.6,12.6,0,0,0-2.65-2.23,19.26,19.26,0,1,1,21.2,0Z"/><path class="cls-2" d="M58.11,68.47H41.89a2.27,2.27,0,1,0,0,4.53H58.11a2.27,2.27,0,1,0,0-4.53Z"/><path class="cls-2" d="M58.11,75.93H41.89a2.27,2.27,0,1,0,0,4.53H58.11a2.27,2.27,0,1,0,0-4.53Z"/><path class="cls-2" d="M50.05,87.18a5.79,5.79,0,0,0,5.1-3H45A5.78,5.78,0,0,0,50.05,87.18Z"/></svg>