<svg id="Layer_1" data-name="Layer 1" xmlns="http://www.w3.org/2000/svg" xmlns:xlink="http://www.w3.org/1999/xlink" viewBox="0 0 24 24"><defs><style>.cls-1{fill:url(#linear-gradient);}</style><linearGradient id="linear-gradient" x1="-0.05" y1="9.01" x2="22.17" y2="17.41" gradientUnits="userSpaceOnUse"><stop offset="0" stop-color="#5b8687"/><stop offset="0.03" stop-color="#608d8e"/><stop offset="0.18" stop-color="#74a9aa"/><stop offset="0.34" stop-color="#83bfc0"/><stop offset="0.51" stop-color="#8ececf"/><stop offset="0.71" stop-color="#94d7d8"/><stop offset="1" stop-color="#96dadb"/></linearGradient></defs><title>beer</title><path class="cls-1" d="M17.61,21.22V8.45a3.36,3.36,0,0,0,1.68-3.1A3.54,3.54,0,0,0,16,1.83,4.74,4.74,0,0,0,12.23,0,4,4,0,0,0,9.65,1a3.9,3.9,0,0,0-3.8.8,3.61,3.61,0,0,0-4.24,3.5,3.5,3.5,0,0,0,2,3.15V21.22c0,.67-.33,1.21-1,1.21V24h16V22.43C18,22.43,17.61,21.89,17.61,21.22Zm-9-.22h-2V8.28a2.64,2.64,0,0,0,2,.27ZM15.77,7.29a1.92,1.92,0,0,1-1.54-.75l-.45.31c-1.53,1.18-.12,3.31,0,4.33a1.45,1.45,0,1,1-2.86,0c.08-1,1.56-2.92-.09-4.44l-.62-.57A2.28,2.28,0,0,1,8.44,7a2.33,2.33,0,0,1-1.57-.61,1.92,1.92,0,0,1-1.57.81,2,2,0,1,1,0-3.89,1.93,1.93,0,0,1,1.07.32A2.33,2.33,0,0,1,10,2.93a2.82,2.82,0,0,1,5.1.6,1.94,1.94,0,1,1,.69,3.76Zm7.84,5.16a7.84,7.84,0,0,1-5,7V17.25c3.16-1.83,4-6.25,1.56-6.25H18.61V9h1.91C22.67,9,23.61,10.53,23.61,12.45Z"/></svg>