<svg id="Layer_1" data-name="Layer 1" xmlns="http://www.w3.org/2000/svg" xmlns:xlink="http://www.w3.org/1999/xlink" viewBox="0 0 24 24"><defs><style>.cls-1{fill:url(#linear-gradient);}</style><linearGradient id="linear-gradient" x1="3" y1="8.6" x2="21.65" y2="15.64" gradientUnits="userSpaceOnUse"><stop offset="0" stop-color="#5b8687"/><stop offset="0.03" stop-color="#5e8a8b"/><stop offset="0.31" stop-color="#76adae"/><stop offset="0.57" stop-color="#88c6c7"/><stop offset="0.81" stop-color="#92d5d6"/><stop offset="1" stop-color="#96dadb"/></linearGradient></defs><title>glasses</title><path class="cls-1" d="M17.94,8a10.58,10.58,0,0,0-3.39.49c-2.28.83-2.79.84-5.1,0A10.6,10.6,0,0,0,6.05,8a25.12,25.12,0,0,0-6,.88v1.79c.85.25,1.07.62,1.2,1.49C1.58,14.6,2.46,17,6.27,17c3,0,4.05-2.26,4.72-4.34a1,1,0,0,1,2,0c.68,2.09,1.68,4.36,4.73,4.36,3.81,0,4.69-2.4,5.07-4.84.13-.87.35-1.24,1.2-1.49V8.88A25.2,25.2,0,0,0,17.94,8ZM9.83,9.74a1.72,1.72,0,0,1,.33.26h-8l.11-.17C3.16,8.7,8.17,8.74,9.83,9.74ZM2,11h8.4a5.11,5.11,0,0,1-.14.81l0,.19H2.12c-.05-.31-.09-.63-.12-1Zm.64,3a4.89,4.89,0,0,1-.33-1H9.92a7.47,7.47,0,0,1-.41,1Zm3.63,2a3.9,3.9,0,0,1-3-1h5.5A3.31,3.31,0,0,1,6.27,16Zm7.9-6.26c1.67-1,6.67-1,7.61.09l.11.17h-8A1.46,1.46,0,0,1,14.17,9.74ZM21.89,12h-8.1l0-.19A5.11,5.11,0,0,1,13.6,11H22v0C22,11.37,21.93,11.69,21.89,12Zm-7.4,2a7.47,7.47,0,0,1-.41-1h7.61a4.89,4.89,0,0,1-.33,1Zm.72,1H20.7a3.86,3.86,0,0,1-3,1A3.31,3.31,0,0,1,15.21,15Z"/></svg>