<svg id="Layer_1" data-name="Layer 1" xmlns="http://www.w3.org/2000/svg" xmlns:xlink="http://www.w3.org/1999/xlink" viewBox="0 0 24 24"><defs><style>.cls-1{fill:url(#linear-gradient);}</style><linearGradient id="linear-gradient" x1="1.19" y1="8" x2="21.26" y2="15.59" gradientUnits="userSpaceOnUse"><stop offset="0" stop-color="#5b8687"/><stop offset="0.03" stop-color="#608d8e"/><stop offset="0.18" stop-color="#74a9aa"/><stop offset="0.34" stop-color="#83bfc0"/><stop offset="0.51" stop-color="#8ececf"/><stop offset="0.71" stop-color="#94d7d8"/><stop offset="1" stop-color="#96dadb"/></linearGradient></defs><title>target</title><path class="cls-1" d="M6,13a4,4,0,0,0,7.78,1.27L16,13v0a6,6,0,1,1-3-5.21L10.77,9.08A3.94,3.94,0,0,0,10,9,4,4,0,0,0,6,13Zm4-2a2,2,0,1,0,2,2v0l3.36-2a4.58,4.58,0,0,1,3.71.16L24,8.33,20.84,6.76,21,3.13,16.07,6a4.55,4.55,0,0,1-1.71,3.3l-3.38,2A1.92,1.92,0,0,0,10,11Zm8,1.91V13a8,8,0,1,1-4-6.89,2.72,2.72,0,0,0,.15-2.18A10,10,0,1,0,20,13.86,2.15,2.15,0,0,0,18,12.91Z"/></svg>